<?xml version="1.0" encoding="utf-8"?>
<!-- Generator: Adobe Illustrator 16.0.3, SVG Export Plug-In . SVG Version: 6.00 Build 0)  -->
<!DOCTYPE svg PUBLIC "-//W3C//DTD SVG 1.1//EN" "http://www.w3.org/Graphics/SVG/1.1/DTD/svg11.dtd">
<svg version="1.1" id="Layer_1" xmlns="http://www.w3.org/2000/svg" xmlns:xlink="http://www.w3.org/1999/xlink" x="0px" y="0px"
	 width="100px" height="100px" viewBox="-15.392 -14.5 100 100" enable-background="new -15.392 -14.5 100 100"
	 xml:space="preserve">
<g>
	<g>
		<g>
			<path fill="#FF0000" d="M54.296,26.344c0,0.585-0.111,1.146-0.335,1.68c-0.22,0.533-0.528,1-0.919,1.398
				c-0.39,0.4-0.849,0.721-1.371,0.959c-0.525,0.24-1.09,0.359-1.694,0.359c-0.516,0-1.039-0.071-1.572-0.213
				c-0.534-0.143-1.015-0.386-1.439-0.733c-0.428-0.347-0.777-0.805-1.053-1.372c-0.276-0.569-0.414-1.289-0.414-2.16v-10.45
				c0-0.624,0.106-1.201,0.32-1.733c0.212-0.533,0.515-0.994,0.904-1.386c0.392-0.392,0.857-0.697,1.399-0.921
				c0.545-0.221,1.143-0.333,1.801-0.333c0.622,0,1.198,0.112,1.731,0.333c0.534,0.222,0.997,0.533,1.387,0.934
				c0.392,0.4,0.698,0.88,0.92,1.44c0.221,0.561,0.333,1.168,0.333,1.827v1.067h-2.719v-0.906c0-0.533-0.15-0.995-0.454-1.386
				c-0.303-0.391-0.711-0.585-1.226-0.585c-0.676,0-1.125,0.209-1.346,0.625c-0.224,0.419-0.335,0.947-0.335,1.587v9.704
				c0,0.551,0.121,1.014,0.36,1.386c0.241,0.374,0.672,0.561,1.294,0.561c0.177,0,0.369-0.031,0.573-0.093
				c0.204-0.063,0.391-0.165,0.559-0.307c0.169-0.144,0.308-0.338,0.414-0.587c0.106-0.249,0.16-0.559,0.16-0.933v-0.935h2.719
				L54.296,26.344L54.296,26.344z"/>
			<path fill="#FF0000" d="M59.787,16.079c0-0.765,0.134-1.44,0.4-2.026c0.267-0.587,0.615-1.071,1.053-1.453
				c0.437-0.382,0.925-0.671,1.467-0.866c0.542-0.197,1.088-0.293,1.64-0.293c0.553,0,1.097,0.098,1.642,0.293
				c0.541,0.195,1.029,0.484,1.466,0.866c0.436,0.382,0.787,0.866,1.054,1.453c0.264,0.586,0.399,1.262,0.399,2.026v10.025
				c0,0.782-0.136,1.462-0.399,2.039c-0.267,0.579-0.618,1.058-1.054,1.44c-0.437,0.382-0.925,0.671-1.466,0.867
				c-0.545,0.195-1.089,0.292-1.642,0.292c-0.552,0-1.098-0.097-1.64-0.292c-0.542-0.196-1.03-0.484-1.467-0.867
				c-0.438-0.382-0.786-0.862-1.053-1.44c-0.267-0.578-0.4-1.256-0.4-2.039V16.079z M62.505,26.104c0,0.658,0.184,1.142,0.549,1.453
				c0.364,0.312,0.796,0.467,1.293,0.467c0.498,0,0.929-0.155,1.293-0.467c0.365-0.311,0.548-0.795,0.548-1.453V16.079
				c0-0.658-0.183-1.143-0.548-1.453c-0.364-0.312-0.794-0.466-1.293-0.466c-0.496,0-0.929,0.154-1.293,0.466
				c-0.365,0.31-0.549,0.794-0.549,1.453V26.104z"/>
			<path fill="#FF0000" d="M45.497,44.704c0-0.764,0.133-1.44,0.4-2.026c0.264-0.587,0.615-1.07,1.052-1.453
				c0.438-0.38,0.925-0.668,1.467-0.867c0.542-0.194,1.088-0.293,1.64-0.293c0.553,0,1.098,0.099,1.64,0.293
				c0.543,0.199,1.032,0.487,1.468,0.867c0.437,0.383,0.785,0.866,1.053,1.453c0.266,0.586,0.4,1.263,0.4,2.026v10.025
				c0,0.781-0.135,1.46-0.4,2.037s-0.616,1.06-1.053,1.438c-0.436,0.383-0.925,0.671-1.468,0.868
				c-0.542,0.196-1.087,0.292-1.64,0.292c-0.552,0-1.098-0.096-1.64-0.292c-0.542-0.197-1.029-0.485-1.467-0.868
				c-0.437-0.379-0.785-0.861-1.052-1.438c-0.268-0.577-0.4-1.256-0.4-2.037V44.704z M48.215,54.729
				c0,0.656,0.184,1.139,0.547,1.449c0.365,0.314,0.796,0.471,1.294,0.471c0.497,0,0.929-0.156,1.294-0.471
				c0.365-0.311,0.547-0.793,0.547-1.449V44.704c0-0.659-0.182-1.141-0.547-1.453c-0.365-0.312-0.795-0.467-1.294-0.467
				c-0.497,0-0.929,0.155-1.294,0.467c-0.363,0.313-0.547,0.794-0.547,1.453V54.729z"/>
			<path fill="#FF0000" d="M69.251,45.69h-2.719v-0.613c0-0.619-0.146-1.16-0.438-1.609c-0.294-0.455-0.787-0.681-1.483-0.681
				c-0.371,0-0.679,0.07-0.919,0.212c-0.239,0.144-0.426,0.323-0.559,0.548c-0.135,0.224-0.226,0.479-0.28,0.773
				s-0.081,0.602-0.081,0.921c0,0.375,0.016,0.688,0.04,0.944c0.027,0.262,0.093,0.482,0.202,0.669
				c0.106,0.187,0.261,0.352,0.466,0.494c0.204,0.144,0.484,0.286,0.84,0.428l2.079,0.826c0.604,0.232,1.093,0.504,1.467,0.814
				c0.375,0.313,0.663,0.676,0.867,1.093c0.205,0.418,0.341,0.899,0.413,1.439c0.07,0.543,0.106,1.16,0.106,1.852
				c0,0.801-0.081,1.54-0.241,2.228c-0.159,0.687-0.422,1.271-0.784,1.761c-0.365,0.489-0.85,0.876-1.453,1.158
				c-0.606,0.284-1.343,0.429-2.213,0.429c-0.659,0-1.272-0.117-1.839-0.346c-0.569-0.231-1.06-0.549-1.468-0.949
				c-0.41-0.399-0.732-0.874-0.973-1.423c-0.24-0.554-0.36-1.148-0.36-1.788v-1.018h2.72v0.854c0,0.499,0.146,0.947,0.438,1.347
				c0.294,0.399,0.787,0.603,1.481,0.603c0.46,0,0.821-0.068,1.078-0.203c0.259-0.134,0.455-0.32,0.586-0.557
				c0.135-0.242,0.218-0.539,0.255-0.895c0.033-0.357,0.053-0.748,0.053-1.174c0-0.497-0.02-0.906-0.053-1.228
				c-0.034-0.321-0.112-0.577-0.227-0.773c-0.115-0.197-0.276-0.356-0.48-0.482c-0.204-0.123-0.477-0.257-0.813-0.397l-1.945-0.803
				c-1.174-0.482-1.961-1.12-2.36-1.907c-0.4-0.789-0.601-1.781-0.601-2.974c0-0.711,0.099-1.387,0.294-2.026
				c0.195-0.638,0.485-1.191,0.866-1.653c0.382-0.463,0.866-0.832,1.452-1.107c0.588-0.276,1.271-0.414,2.055-0.414
				c0.674,0,1.294,0.124,1.851,0.375c0.562,0.251,1.04,0.577,1.44,0.988c0.4,0.409,0.708,0.863,0.92,1.37
				c0.214,0.507,0.319,1.027,0.319,1.561V45.69z"/>
		</g>
	</g>
	<g>
		<path fill="#FF0000" d="M79.241,80.087H-9.166V-8.321h88.407V80.087z M-5.43,76.349h80.937V-4.585H-5.43V76.349z"/>
	</g>
</g>
</svg>
