<?xml version="1.0" encoding="utf-8"?>
<!-- Generator: Adobe Illustrator 16.0.3, SVG Export Plug-In . SVG Version: 6.00 Build 0)  -->
<!DOCTYPE svg PUBLIC "-//W3C//DTD SVG 1.1//EN" "http://www.w3.org/Graphics/SVG/1.1/DTD/svg11.dtd">
<svg version="1.1" id="Layer_1" xmlns="http://www.w3.org/2000/svg" xmlns:xlink="http://www.w3.org/1999/xlink" x="0px" y="0px"
	 width="100px" height="100px" viewBox="0 0 100 100" enable-background="new 0 0 100 100" xml:space="preserve">
<ellipse fill-rule="evenodd" clip-rule="evenodd" fill="#0195ED" cx="69.25" cy="50.333" rx="28.917" ry="27.667"/>
<path fill-rule="evenodd" clip-rule="evenodd" fill="#0B0B0B" d="M3.531,74.955c4.558-3.573,9.667-1.093,14.533-2.354
	c0-7.305,0-14.692,0-22.206c-4.282-2.422-10.995,2.477-14.715-3.814c4.044-3.376,19.378-3.805,24.973-0.822
	c0,8.693,0,17.624,0,26.511c5.163,2.073,11.086-1.459,15.454,3.038c-0.603,3.19-2.954,3.563-5.271,3.581
	c-9.973,0.076-19.948,0.076-29.921-0.002C6.277,78.868,3.889,78.546,3.531,74.955z"/>
<path fill-rule="evenodd" clip-rule="evenodd" fill="#0195ED" d="M19.967,39.861c-5.7,0.077-10.827-3.691-10.973-8.066
	c-0.146-4.353,4.922-8.43,10.584-8.515c5.425-0.082,10.963,3.976,11.106,8.136C30.828,35.602,25.519,39.786,19.967,39.861z"/>
<path fill-rule="evenodd" clip-rule="evenodd" fill="#0B0B0B" d="M66.305,67.152c-1.471-0.588-2.104-1.504-2.64-2.928
	c6.927-7.501,12.819-15.803,14.577-26.175c1.113-0.865,2.138-1.253,3.329-0.781C85.612,47.482,78.266,61.971,66.305,67.152z"/>
<path fill-rule="evenodd" clip-rule="evenodd" fill="#0B0B0B" d="M54.417,48.932c3.969-0.137,7.473,2.627,7.599,5.692
	c0.136,3.301-1.915,4.797-4.895,5.042c-3.229,0.266-6.889-2.766-7.021-5.77C49.954,50.595,51.984,49.221,54.417,48.932z"/>
<path fill-rule="evenodd" clip-rule="evenodd" fill="#0B0B0B" d="M61.441,38.856c3.992,0.03,7.437,2.928,7.371,5.943
	c-0.072,3.283-2.282,4.631-5.216,4.767c-3.315,0.153-6.735-2.982-6.716-6.02C56.901,40.205,58.985,38.978,61.441,38.856z"/>
</svg>
