<?xml version="1.0" encoding="utf-8"?>
<!-- Generator: Adobe Illustrator 16.0.3, SVG Export Plug-In . SVG Version: 6.00 Build 0)  -->
<!DOCTYPE svg PUBLIC "-//W3C//DTD SVG 1.1//EN" "http://www.w3.org/Graphics/SVG/1.1/DTD/svg11.dtd">
<svg version="1.1" id="Layer_1" xmlns="http://www.w3.org/2000/svg" xmlns:xlink="http://www.w3.org/1999/xlink" x="0px" y="0px"
	 width="100px" height="100px" viewBox="0 0 100 100" enable-background="new 0 0 100 100" xml:space="preserve">
<g>
	<g>
		<path fill="#79AD36" d="M34.587,29.188c-3.398,0-6.189,2.791-6.189,6.189c0,3.398,2.791,6.25,6.189,6.25s6.311-2.853,6.311-6.25
			C40.837,31.979,37.986,29.188,34.587,29.188z"/>
		<path fill="#79AD36" d="M66.93,12.502H12.5v54.607c0,11.833,8.676,20.389,20.57,20.389H87.5V32.89
			C87.5,21.3,78.642,12.502,66.93,12.502z M78.823,65.532L51.277,44.177c-0.851-0.607-1.884-0.91-3.037-0.91
			c-2.913,0-5.279,2.366-5.279,5.279c0,1.214,0.425,2.306,1.092,3.214l23.363,27.123H33.07c-8.798,0-11.894-6.312-11.894-11.711
			V21.178H66.93c8.193,0,11.895,6.068,11.895,11.711L78.823,65.532L78.823,65.532z"/>
	</g>
</g>
</svg>
