<?xml version="1.0" encoding="utf-8"?>
<!-- Generator: Adobe Illustrator 16.0.3, SVG Export Plug-In . SVG Version: 6.00 Build 0)  -->
<!DOCTYPE svg PUBLIC "-//W3C//DTD SVG 1.1//EN" "http://www.w3.org/Graphics/SVG/1.1/DTD/svg11.dtd">
<svg version="1.1" id="Layer_1" xmlns="http://www.w3.org/2000/svg" xmlns:xlink="http://www.w3.org/1999/xlink" x="0px" y="0px"
	 width="100px" height="100px" viewBox="0 0 100 100" enable-background="new 0 0 100 100" xml:space="preserve">
<g>
	<g>
		<polygon fill="#231F20" points="25.171,84.166 28.56,84.166 28.56,82.956 25.171,82.956 25.171,81.42 30.99,81.42 30.99,80.176 
			23.44,80.176 23.44,87.215 31.08,87.215 31.08,85.898 25.171,85.898 		"/>
		<path fill="#231F20" d="M38.353,85.898h-4.901v-5.723h-1.707v5.372c0,0.645,0.126,1.084,0.378,1.316
			c0.252,0.233,0.736,0.351,1.451,0.351h4.656c0.716,0,1.203-0.12,1.463-0.357c0.259-0.239,0.39-0.675,0.39-1.31v-5.372h-1.731
			V85.898z"/>
		<path fill="#231F20" d="M52.731,80.176l-3.767,6.347l-2.079-1.974h0.426c0.579,0,1-0.108,1.259-0.325
			c0.261-0.217,0.391-0.559,0.391-1.024v-1.658c0-0.481-0.132-0.83-0.395-1.044c-0.262-0.214-0.681-0.321-1.254-0.321h-6.34v7.039
			h1.69v-2.666l2.006-0.002l2.639,2.67l2.387-0.002l-0.001-0.002h0.574l0.887-1.543h4.662l0.885,1.545h1.926l-4.242-7.039H52.731z
			 M42.662,83.338v-1.951h3.918c0.292,0,0.495,0.046,0.608,0.135c0.115,0.089,0.171,0.233,0.171,0.435v0.813
			c0,0.211-0.055,0.359-0.166,0.442c-0.111,0.085-0.316,0.127-0.614,0.127H42.662z M51.877,84.387l1.593-2.938l1.647,2.938H51.877z"
			/>
		<path fill="#231F20" d="M69.404,80.176l-3.396,5.723h-5.142v-5.723h-1.732v7.039h7.252v-0.002h0.553l0.888-1.543h4.663
			l0.883,1.545H75.3l-4.245-7.039H69.404z M68.55,84.387l1.593-2.938l1.647,2.938H68.55z"/>
		<path fill="#231F20" d="M83.9,84.041c-0.222-0.236-0.528-0.387-0.919-0.451c0.391-0.071,0.688-0.209,0.895-0.415
			s0.309-0.469,0.309-0.789v-0.845c0-0.481-0.131-0.83-0.394-1.044c-0.264-0.214-0.688-0.321-1.272-0.321h-6.403v7.039h5.931
			c0.737,0,1.285-0.117,1.647-0.354c0.36-0.235,0.54-0.577,0.54-1.028V84.93C84.233,84.572,84.123,84.275,83.9,84.041z
			 M77.885,81.322h3.845c0.305,0,0.508,0.037,0.614,0.113c0.105,0.076,0.158,0.204,0.158,0.382v0.667
			c0,0.184-0.054,0.314-0.163,0.39c-0.107,0.076-0.312,0.114-0.609,0.114h-3.845V81.322z M82.566,85.32
			c0,0.233-0.057,0.396-0.17,0.488s-0.336,0.138-0.667,0.138h-3.845V84.15h3.845c0.326,0,0.547,0.049,0.663,0.146
			s0.174,0.26,0.174,0.488V85.32z"/>
		<path fill="#231F20" d="M21.136,83.829v0.384l0.054,0.849c-0.113-0.135-0.231-0.261-0.358-0.377
			c-0.066-0.067-0.139-0.135-0.215-0.202c-0.053-0.049-0.132-0.114-0.235-0.195l-5.006-4.196l-1.134,0.002v7.115h1.49v-3.843
			l-0.02-0.505l-0.047-0.627c0.049,0.063,0.091,0.113,0.128,0.148c0.016,0.021,0.062,0.065,0.133,0.128l0.331,0.302l5.222,4.396
			h1.13v-7.115h-1.474V83.829z"/>
	</g>
	<path fill="#231F20" d="M15.509,71.223V13.843h9.127l40.368,33.82c0.831,0.66,1.475,1.186,1.903,1.586
		c0.613,0.528,1.191,1.079,1.737,1.625c1.015,0.935,1.971,1.947,2.881,3.035l-0.437-6.83v-3.11V13.843h11.88v57.379H73.86
		l-42.126-35.44l-2.665-2.455c-0.566-0.495-0.934-0.849-1.079-1.023c-0.288-0.295-0.629-0.683-1.03-1.19l0.379,5.056l0.166,4.053
		v30.999H15.509z"/>
</g>
</svg>
